PathFileType	4	(X/Y/Z)	9_coords_data.trc
DataRate	CameraRate	NumFrames	NumMarkers	Units	OrigDataRate	OrigDataStartFrame	OrigNumFrames
30.0	30.0	6	21	m	30.0	31	41
Frame#	Time	THUMB_TIP	THUMB_IP	THUMB_MCP	THUMB_CMC	INDEX_TIP	INDEX_DIP	INDEX_PIP	INDEX_MCP	MIDDLE_TIP	MIDDLE_DIP	MIDDLE_PIP	MIDDLE_MCP	RING_TIP	RING_DIP	RING_PIP	RING_MCP	PINKY_TIP	PINKY_DIP	PINKY_PIP	PINKY_MCP	WRIST
X1	Y1	Z1	X2	Y2	Z2	X3	Y3	Z3	X4	Y4	Z4	X5	Y5	Z5	X6	Y6	Z6	X7	Y7	Z7	X8	Y8	Z8	X9	Y9	Z9	X10	Y10	Z10	X11	Y11	Z11	X12	Y12	Z12	X13	Y13	Z13	X14	Y14	Z14	X15	Y15	Z15	X16	Y16	Z16	X17	Y17	Z17	X18	Y18	Z18	X19	Y19	Z19	X20	Y20	Z20	X21	Y21	Z21
30	1.0	0.07306199645996093	-0.02451740074157715	0.9560689697265625	0.054194198608398435	-0.022637100219726564	0.9768270263671875	0.03431539916992187	-0.023916099548339845	1.0000700073242188	0.013881799697875976	-0.006474599838256836	1.0178800048828125	0.05469779968261719	-0.00836242961883545	0.89414599609375	0.039092098236083984	-0.015317999839782714	0.9077109985351562	0.022529300689697267	-0.021770000457763672	0.922926025390625	0.007665420055389404	-0.02550090026855469	0.9609500122070312	0.04073540115356445	0.020399499893188476	0.8764990234375	0.027355499267578125	0.012744400024414062	0.8947680053710938	0.008899379730224609	0.004334020137786865	0.9170670166015625	-0.00340430998802185	-0.0042969098091125485	0.9581079711914062	0.03322190093994141	0.04238930130004883	0.8893610229492187	0.018790000915527343	0.03652899932861328	0.9072520141601562	0.000986485004425048	0.02819059944152832	0.9283779907226563	-0.008277609825134277	0.017179100036621094	0.9645449829101562	0.020275299072265624	0.0674636001586914	0.930885986328125	0.006266670227050781	0.06188589859008789	0.9425830078125	-0.00555236005783081	0.054179100036621096	0.9556270141601563	-0.009118020057678223	0.03834590148925781	0.9782849731445312	-0.01993330001831055	-0.00347625994682312	1.0426300048828125
31	1.0333333333333334	0.07235679626464844	-0.018049999237060545	0.9561840209960938	0.05378110122680664	-0.01803730010986328	0.9773200073242188	0.03381629943847656	-0.020305900573730468	1.00052001953125	0.01346030044555664	-0.003912019968032837	1.01802001953125	0.05423360061645508	-0.00478380012512207	0.8954299926757813	0.038390098571777345	-0.012147500038146972	0.908323974609375	0.021510799407958983	-0.018852100372314454	0.923177978515625	0.006823319911956787	-0.02282309913635254	0.9613060302734375	0.040400299072265625	0.024086200714111328	0.877697998046875	0.026567399978637694	0.016208099365234374	0.8957789916992187	0.00790339994430542	0.0074944601058959965	0.9177249755859375	-0.004284409999847412	-0.001557180047035217	0.9584089965820313	0.0338140983581543	0.04620800018310547	0.8912310180664063	0.01894339942932129	0.04016310119628906	0.9087459716796875	0.000748167991638183	0.03158889961242676	0.9291810302734375	-0.009032930374145508	0.01993589973449707	0.965073974609375	0.02261199951171875	0.07015670013427734	0.9336220092773437	0.007960869789123535	0.06477220153808594	0.9449119873046875	-0.004551799774169922	0.05715230178833008	0.9571729736328125	-0.009596280097961426	0.0408927001953125	0.9792630004882813	-0.01979240036010742	-0.001071009993553161	1.0432900390625
32	1.0666666666666667	0.07113559722900391	-0.010095899581909179	0.95625	0.05319480133056641	-0.013254899978637696	0.9781420288085938	0.03343299865722656	-0.017046499252319335	1.0013499755859374	0.013292400360107422	-0.001379830002784729	1.0185399780273436	0.05417929840087891	-0.001666409969329834	0.8971380004882813	0.03794400024414062	-0.00930403995513916	0.90922998046875	0.02079319953918457	-0.01630649948120117	0.9235120239257812	0.006368730068206787	-0.020331199645996095	0.961708984375	0.03929899978637695	0.026978700637817384	0.8782490234375	0.02550670051574707	0.018993200302124022	0.8962890014648438	0.006893939971923828	0.010196599960327148	0.9180850219726563	-0.004891419887542724	0.001015980005264282	0.9590349731445312	0.03422629928588867	0.04918009948730469	0.8927540283203125	0.01897800064086914	0.043042598724365236	0.9098839721679688	0.0004712620079517361	0.03429890060424805	0.9299929809570312	-0.009592510223388672	0.0223262996673584	0.9658159790039063	0.024891700744628906	0.07235530090332032	0.9363159790039063	0.00976183032989502	0.06727500152587891	0.947031982421875	-0.0034333899021148683	0.0597411003112793	0.95864697265625	-0.009717410087585449	0.043144100189208986	0.9803829956054687	-0.0200531005859375	0.0008710389733314511	1.044
33	1.1	0.06931680297851563	-0.002583920001983642	0.956885986328125	0.05290549850463867	-0.008874279975891113	0.9785789794921875	0.033508201599121094	-0.014070699691772461	1.0018400268554688	0.013071000099182129	0.000713099002838134	1.0196300048828124	0.05413830184936524	0.0007648429870605461	0.8985419921875	0.03759740066528321	-0.007159699916839599	0.9100040283203125	0.020281499862670898	-0.014310500144958497	0.9239509887695313	0.0060652499198913575	-0.018156200408935546	0.9624219970703125	0.0377765998840332	0.029082599639892577	0.8785009765625	0.02406119918823242	0.021058300018310546	0.896552001953125	0.005608280181884765	0.01215939998626709	0.91843798828125	-0.00555279016494751	0.0028076400756835928	0.9597849731445313	0.033615398406982425	0.051343498229980467	0.8938410034179688	0.018157699584960937	0.04517210006713867	0.910530029296875	-0.00048301100730895904	0.036383499145507814	0.9306329956054687	-0.01022949981689453	0.024386600494384767	0.9663099975585937	0.026422000885009764	0.07465390014648438	0.9386530151367187	0.01093690013885498	0.06967630004882812	0.9488460083007813	-0.0028275899887084963	0.062151901245117186	0.960041015625	-0.010071900367736817	0.04512490081787109	0.9810079956054687	-0.020058300018310545	0.002793970108032226	1.0444200439453124
34	1.1333333333333333	0.06697509765625	0.004448709964752197	0.9579429931640625	0.05216270065307617	-0.005199649810791016	0.97943701171875	0.03316540145874024	-0.011706399917602538	1.0018400268554688	0.012505100250244141	0.0024083399772644037	1.02027001953125	0.05396749877929687	0.002448980093002319	0.8995020141601563	0.03721649932861328	-0.00547488021850586	0.9106920166015625	0.019851400375366212	-0.012753100395202636	0.92422802734375	0.005543819904327393	-0.016595800399780272	0.9627949829101563	0.03772330093383789	0.030880599975585937	0.87943798828125	0.023704200744628905	0.022798200607299805	0.8972130126953125	0.005098309993743896	0.013913399696350097	0.9188740234375	-0.005982029914855957	0.004528090000152588	0.9599130249023438	0.0342067985534668	0.05314899826049805	0.8950180053710938	0.018390899658203126	0.047019599914550785	0.9115139770507813	-0.0006835719943046571	0.03817530059814453	0.9310999755859375	-0.01057390022277832	0.026033300399780274	0.9666900024414062	0.027525699615478516	0.07601039886474609	0.9402639770507812	0.01180399990081787	0.07124230194091796	0.9500880126953125	-0.002352629899978637	0.06385369873046876	0.96102099609375	-0.010273799896240235	0.0467240982055664	0.9815289916992187	-0.020514900207519532	0.00426196002960205	1.0447900390625
35	1.1666666666666667	0.06562550354003906	0.009080249786376953	0.9594840087890625	0.05197249984741211	-0.002367640018463134	0.980426025390625	0.03294499969482422	-0.009724200248718262	1.0023400268554687	0.01226010036468506	0.003707210063934326	1.0199600219726563	0.0542677001953125	0.0035169599056243893	0.9005780029296875	0.03725350189208984	-0.0044482598304748525	0.9113709716796875	0.019659299850463868	-0.01175759983062744	0.9246229858398437	0.005147500038146973	-0.015371899604797363	0.9629240112304688	0.03829970169067383	0.032151798248291015	0.8803900146484375	0.0239379997253418	0.02403249931335449	0.8979559936523438	0.005020410060882568	0.015122900009155274	0.9192369995117188	-0.006403979778289795	0.005735949993133545	0.960302001953125	0.03560279846191406	0.05462519836425781	0.8967360229492187	0.01933530044555664	0.048433700561523435	0.9125440063476562	-0.000280396997928619	0.03962879943847656	0.9316749877929688	-0.010910099983215332	0.027221900939941406	0.9669869995117187	0.028870100021362304	0.07684719848632812	0.941781982421875	0.01284969997406006	0.07232810211181641	0.9512680053710938	-0.0016560900211334219	0.06508509826660157	0.9618980102539062	-0.010288999557495118	0.04794039916992188	0.9817650146484375	-0.02073110008239746	0.00530856990814209	1.04497998046875
